<svg aria-hidden="true" style="position: absolute; width: 0; height: 0; overflow: hidden;" version="1.1" xmlns="http://www.w3.org/2000/svg" xmlns:xlink="http://www.w3.org/1999/xlink">
<defs>
<symbol id="icon-sparow" viewBox="0 0 55 32">
<path fill="none" stroke="#fff" style="stroke: var(--color1, #fff)" stroke-linejoin="round" stroke-linecap="round" stroke-miterlimit="4" stroke-width="4.5714" d="M52.571 16l-13.714-13.714M52.571 16l-13.714 13.714M52.571 16h-24M16 16h5.714"></path>
<path fill="#ff543e" style="fill: var(--color2, #ff543e)" d="M9.143 16c0 2.525-2.047 4.571-4.571 4.571s-4.571-2.047-4.571-4.571c0-2.525 2.047-4.571 4.571-4.571s4.571 2.047 4.571 4.571z"></path>
</symbol>
<symbol id="icon-add" viewBox="0 0 32 32">
<path d="M6.944 0.501c-1.626 0.18-3.144 0.903-4.307 2.052s-1.904 2.656-2.101 4.278c-0.714 6.092-0.714 12.247 0 18.339 0.391 3.338 3.079 5.957 6.411 6.33 6.018 0.666 12.090 0.666 18.108 0 3.332-0.373 6.020-2.992 6.411-6.33 0.714-6.093 0.714-12.248 0-18.341-0.391-3.338-3.079-5.957-6.411-6.33-6.017-0.666-12.090-0.666-18.108 0zM16 6.305c0.387 0 0.758 0.153 1.032 0.427s0.427 0.643 0.427 1.030v6.782h6.794c0.387 0 0.758 0.153 1.032 0.427s0.427 0.643 0.427 1.030-0.154 0.757-0.427 1.030c-0.274 0.273-0.645 0.427-1.032 0.427h-6.794v6.782c0 0.386-0.154 0.757-0.427 1.030s-0.645 0.427-1.032 0.427c-0.387 0-0.758-0.153-1.031-0.427s-0.427-0.644-0.427-1.030v-6.782h-6.794c-0.387 0-0.758-0.153-1.031-0.427s-0.427-0.643-0.427-1.030c0-0.386 0.154-0.757 0.427-1.030s0.645-0.427 1.031-0.427h6.794v-6.782c0-0.386 0.154-0.757 0.427-1.030s0.645-0.427 1.031-0.427z"></path>
</symbol>
<symbol id="icon-remove" viewBox="0 0 26 32">
<path fill="#ff543e" style="fill: var(--color1, #ff543e)" d="M23.116 6.564l-1.242 22.346c-0.046 0.836-0.392 1.621-0.968 2.196s-1.337 0.894-2.128 0.894h-11.205c-0.791 0-1.552-0.32-2.128-0.894s-0.922-1.36-0.968-2.196l-1.239-22.346h-3.24v-1.641c0-0.218 0.082-0.426 0.227-0.58s0.343-0.24 0.548-0.24h24.803c0.206 0 0.403 0.086 0.548 0.24s0.227 0.363 0.227 0.58v1.641h-3.237zM10.076 0h6.201c0.206 0 0.403 0.086 0.548 0.24s0.227 0.363 0.227 0.58v1.641h-7.751v-1.641c0-0.218 0.082-0.426 0.227-0.58s0.342-0.24 0.548-0.24zM8.526 10.667l0.775 14.769h2.325l-0.62-14.769h-2.48zM15.502 10.667l-0.775 14.769h2.325l0.775-14.769h-2.325z"></path>
</symbol>
<symbol id="icon-tick" viewBox="0 0 35 32">
<path d="M10.866 25.861l-7.29-8.831c-0.393-0.476-0.926-0.743-1.481-0.743s-1.088 0.267-1.481 0.743c-0.393 0.476-0.614 1.121-0.614 1.794 0 0.333 0.054 0.663 0.159 0.971s0.26 0.588 0.454 0.823l8.782 10.637c0.819 0.992 2.143 0.992 2.962 0l22.229-26.924c0.393-0.476 0.613-1.121 0.613-1.794s-0.221-1.318-0.613-1.794c-0.393-0.476-0.926-0.743-1.481-0.743s-1.088 0.267-1.481 0.743l-20.758 25.117z"></path>
</symbol>
<symbol id="icon-price" viewBox="0 0 32 32">
<path d="M22.619 4.365l2.928 2.928c4.302 4.304 6.453 6.454 6.453 9.126 0 2.674-2.15 4.824-6.453 9.126-4.304 4.304-6.454 6.454-9.128 6.454-2.672 0-4.824-2.15-9.126-6.453l-2.928-2.928c-2.472-2.474-3.709-3.709-4.168-5.314-0.461-1.605-0.067-3.309 0.72-6.715l0.453-1.965c0.661-2.867 0.992-4.301 1.973-5.283 0.982-0.981 2.416-1.312 5.283-1.973l1.965-0.454c3.408-0.786 5.11-1.179 6.715-0.72 1.605 0.461 2.842 1.698 5.314 4.17zM14.633 19.725c-1.077-1.075-1.069-2.621-0.424-3.845-0.16-0.231-0.233-0.51-0.209-0.789s0.147-0.541 0.344-0.74c0.198-0.199 0.459-0.322 0.738-0.349s0.559 0.046 0.79 0.204c0.544-0.288 1.141-0.442 1.736-0.435 0.318 0.003 0.622 0.132 0.845 0.359s0.347 0.534 0.344 0.852c-0.003 0.318-0.132 0.622-0.36 0.845s-0.533 0.347-0.852 0.343c-0.371 0.014-0.721 0.173-0.974 0.443-0.619 0.619-0.458 1.24-0.283 1.414 0.176 0.174 0.795 0.336 1.414-0.283 1.254-1.254 3.421-1.67 4.808-0.283 1.077 1.077 1.069 2.622 0.424 3.846 0.159 0.231 0.232 0.509 0.206 0.788s-0.147 0.54-0.345 0.738-0.458 0.322-0.737 0.348c-0.279 0.027-0.558-0.045-0.789-0.203-0.718 0.394-1.551 0.525-2.355 0.371-0.312-0.064-0.586-0.249-0.761-0.515s-0.238-0.59-0.174-0.902c0.064-0.312 0.249-0.585 0.515-0.761s0.59-0.238 0.902-0.174c0.283 0.059 0.741-0.034 1.133-0.426 0.619-0.621 0.458-1.24 0.283-1.414-0.176-0.174-0.795-0.336-1.414 0.283-1.254 1.254-3.421 1.67-4.808 0.282zM12.832 13.269c0.297-0.297 0.533-0.65 0.694-1.038s0.243-0.804 0.243-1.225c-0-0.42-0.083-0.836-0.244-1.225s-0.397-0.741-0.694-1.038c-0.297-0.297-0.65-0.533-1.038-0.694s-0.804-0.243-1.225-0.243c-0.42 0-0.836 0.083-1.225 0.244s-0.741 0.397-1.038 0.694c-0.6 0.6-0.937 1.414-0.937 2.263s0.337 1.663 0.938 2.263c0.6 0.6 1.414 0.937 2.263 0.937s1.663-0.337 2.263-0.938z"></path>
</symbol>
<symbol id="icon-box" viewBox="0 0 29 32">
<path d="M28.474 6.693l-11.901-6.546c-0.176-0.097-0.373-0.147-0.574-0.147s-0.398 0.051-0.574 0.147l-11.901 6.546c-0.187 0.103-0.342 0.254-0.451 0.437s-0.166 0.392-0.166 0.605c0 0.213 0.057 0.422 0.166 0.605s0.264 0.334 0.451 0.437l11.285 6.206v12.757l-3.613-1.987-1.147 2.084 5.377 2.957c0.176 0.097 0.373 0.147 0.574 0.147s0.398-0.051 0.574-0.147l11.901-6.545c0.187-0.103 0.342-0.254 0.451-0.437s0.166-0.392 0.166-0.606v-15.471c0-0.213-0.057-0.422-0.166-0.606s-0.264-0.334-0.451-0.437z"></path>
<path d="M9.697 15.515h-9.697v-2.424h9.697v2.424zM12.121 25.212h-9.697v-2.424h9.697v2.424zM14.545 20.363h-9.697v-2.424h9.697v2.424z"></path>
</symbol>
<symbol id="icon-waga" viewBox="0 0 32 32">
<path d="M16 0c-3.22 0-5.857 2.638-5.857 5.857 0 0.293 0.022 0.581 0.064 0.863 0.215 1.439-0.785 3.709-2.24 3.709-0.663 0-1.251 0.424-1.46 1.053l-5.102 15.307c-0.691 2.072 0.852 4.212 3.036 4.212h23.12c2.184 0 3.727-2.14 3.036-4.212l-5.102-15.307c-0.21-0.629-0.798-1.053-1.46-1.053-1.455 0-2.456-2.27-2.24-3.709 0.042-0.282 0.064-0.57 0.064-0.863 0-3.22-2.638-5.857-5.857-5.857zM16 2.571c1.83 0 3.286 1.456 3.286 3.286s-1.456 3.286-3.286 3.286c-1.83 0-3.286-1.456-3.286-3.286s1.456-3.286 3.286-3.286zM10.127 17.907c0-0.464 0.376-0.839 0.839-0.839h0.137c0.388 0 0.702 0.314 0.702 0.702 0 0.623 0.75 0.937 1.194 0.501l1.026-1.008c0.128-0.125 0.3-0.196 0.479-0.196 0.611 0 0.915 0.742 0.479 1.17l-1.026 1.008c-0.505 0.497-0.507 1.311-0.004 1.81l1.266 1.255c0.469 0.465 0.14 1.265-0.521 1.265-0.195 0-0.382-0.077-0.52-0.214l-1.088-1.077c-0.476-0.472-1.286-0.134-1.286 0.536 0 0.417-0.338 0.755-0.755 0.755h-0.085c-0.464 0-0.839-0.376-0.839-0.839v-4.83zM18.694 18.585c0.34 0 0.639 0.067 0.898 0.2 0.119 0.062 0.234 0.139 0.343 0.234 0.132 0.113 0.367 0.029 0.367-0.144 0-0.1 0.081-0.18 0.18-0.18h0.604c0.433 0 0.785 0.351 0.785 0.785v3.605c0 0.785-0.249 1.383-0.746 1.796-0.494 0.416-1.212 0.623-2.154 0.623-0.305 0-0.6-0.023-0.885-0.070-0.174-0.029-0.346-0.066-0.516-0.111-0.206-0.055-0.342-0.247-0.342-0.46 0-0.382 0.418-0.624 0.785-0.515 0.006 0.002 0.012 0.003 0.017 0.005 0.262 0.078 0.525 0.118 0.789 0.118 0.512 0 0.887-0.112 1.125-0.336s0.358-0.574 0.358-1.051c0-0.108-0.143-0.158-0.218-0.081-0.154 0.159-0.319 0.283-0.493 0.373-0.259 0.134-0.558 0.2-0.898 0.201-0.596 0-1.088-0.234-1.478-0.702-0.389-0.471-0.584-1.070-0.584-1.796 0-0.729 0.195-1.327 0.584-1.792 0.389-0.468 0.882-0.702 1.478-0.702zM19.274 19.71c-0.323 0-0.574 0.119-0.754 0.357s-0.27 0.576-0.27 1.012c0 0.448 0.087 0.788 0.262 1.020 0.174 0.23 0.429 0.345 0.763 0.345 0.325-0 0.578-0.119 0.759-0.358s0.27-0.574 0.27-1.007c0-0.436-0.090-0.773-0.27-1.011s-0.433-0.358-0.759-0.358z"></path>
</symbol>

<symbol id="icon-box-size" viewBox="0 0 32 32">
<path fill="#0184d6" style="fill: var(--color1, #0184d6)" d="M24.925 3.891l-3.2-1.68c-2.81-1.474-4.214-2.211-5.725-2.211s-2.915 0.736-5.725 2.211l-0.514 0.27 14.277 8.158 6.426-3.216c-1.034-1.171-2.701-2.046-5.539-3.536zM31.597 9.542l-6.397 3.2v4.858c0 0.318-0.127 0.623-0.352 0.849s-0.53 0.351-0.848 0.351-0.624-0.126-0.848-0.351c-0.225-0.225-0.352-0.53-0.352-0.849v-3.658l-5.6 2.8v15.104c1.149-0.287 2.456-0.971 4.525-2.058l3.2-1.68c3.442-1.806 5.163-2.709 6.12-4.333 0.955-1.622 0.955-3.643 0.955-7.68v-0.187c0-3.029 0-4.923-0.403-6.366zM14.8 31.846v-15.104l-14.397-7.2c-0.403 1.443-0.403 3.338-0.403 6.363v0.187c0 4.040 0 6.061 0.955 7.683 0.957 1.624 2.678 2.528 6.12 4.335l3.2 1.678c2.069 1.086 3.376 1.771 4.525 2.058zM1.536 7.426l14.464 7.232 5.458-2.728-14.218-8.125-0.165 0.086c-2.837 1.488-4.506 2.363-5.539 3.536z"></path>
</symbol>
</defs>
</svg>